<?xml version="1.0" encoding="UTF-8"?>
<svg version="1.1" xmlns="http://www.w3.org/2000/svg" width="1080" height="1080">
<path d="M0 0 C356.4 0 712.8 0 1080 0 C1080 356.4 1080 712.8 1080 1080 C723.6 1080 367.2 1080 0 1080 C0 723.6 0 367.2 0 0 Z " fill="#FEFEFE" transform="translate(0,0)"/>
<path d="M0 0 C0.33 0 0.66 0 1 0 C-0.62585926 83.35502832 -23.45785064 156.11780518 -80 219 C-80.76594482 219.85271484 -80.76594482 219.85271484 -81.54736328 220.72265625 C-91.1579326 231.37429334 -100.92699519 241.80736247 -112.18359375 250.7421875 C-114.64959398 252.71909199 -117.04596398 254.75655209 -119.4309082 256.82983398 C-174.75656251 304.70068564 -244.37987175 333.1746457 -313 356 C-313.9792041 356.32726074 -314.9584082 356.65452148 -315.96728516 356.99169922 C-327.47274829 360.81511408 -339.13255352 363.96969101 -350.84765625 367.08203125 C-362.70091572 370.24190729 -374.50017525 373.59711535 -386.29980469 376.95068359 C-389.56509789 377.87666869 -392.83290779 378.79300844 -396.1015625 379.70703125 C-438.7275061 391.74276385 -482.18211684 406.50102511 -520 430 C-521.10085938 430.67933594 -522.20171875 431.35867188 -523.3359375 432.05859375 C-539.75080006 442.33526165 -555.22327372 453.69108613 -569.53125 466.75390625 C-571.18337465 468.25702599 -572.85030887 469.74402026 -574.53125 471.21484375 C-580.48840905 476.44574421 -585.80893343 482.01329332 -591 488 C-591.61746094 488.70253906 -592.23492188 489.40507813 -592.87109375 490.12890625 C-594.58639705 492.08106657 -596.29373316 494.03994062 -598 496 C-599.31213495 497.50031934 -600.62462751 499.00032601 -601.9375 500.5 C-602.52402344 501.1703125 -603.11054687 501.840625 -603.71484375 502.53125 C-604.13894531 503.0159375 -604.56304688 503.500625 -605 504 C-601.71770822 501.41801166 -598.53864258 498.74401173 -595.39770508 495.9921875 C-554.20634935 460.05192109 -504.0542147 437.65332518 -451.56005859 423.68896484 C-448.33746689 422.8216986 -445.13781921 421.88331207 -441.9375 420.9375 C-428.71901073 417.15849151 -415.33878561 413.91267349 -401.90562439 410.99610901 C-385.85278155 407.5107103 -369.92141872 403.58738363 -353.99359131 399.57904053 C-351.25223025 398.89034344 -348.50977826 398.20604835 -345.76733112 397.52169132 C-262.08749706 376.63061992 -173.71761637 350.51074981 -104.75097656 296.36572266 C-103.02343456 295.01827843 -101.27790742 293.69884778 -99.5234375 292.38671875 C-93.21339273 287.65007826 -87.25275177 282.66164049 -81.47265625 277.2890625 C-79.39532394 275.36597129 -77.28375015 273.51725482 -75.125 271.6875 C-61.84594241 260.09900005 -51.0086844 246.78187143 -40.42773438 232.74902344 C-39.89728516 232.0480957 -39.36683594 231.34716797 -38.8203125 230.625 C-38.34867676 229.99851562 -37.87704102 229.37203125 -37.39111328 228.7265625 C-36.02282641 227.02833071 -34.5705752 225.51090377 -33 224 C-40.05214753 291.87691995 -78.98589004 358.3277756 -131 402 C-131.78793945 402.66660645 -131.78793945 402.66660645 -132.59179688 403.34667969 C-168.55498309 433.64715426 -209.26778453 454.64863864 -253.5625 469.9375 C-254.35480011 470.21294647 -255.14710022 470.48839294 -255.96340942 470.77218628 C-265.52291978 474.07962028 -275.0479296 476.86956602 -284.92138672 479.06811523 C-288.88068935 479.95340727 -292.77891648 480.99640952 -296.69140625 482.0703125 C-334.5593189 492.28333986 -374.56145793 495.44872526 -413.52941895 498.36581421 C-429.49323164 499.56477284 -445.24318214 501.06837436 -461 504 C-461.99386719 504.18143555 -462.98773437 504.36287109 -464.01171875 504.54980469 C-486.2099129 508.67821404 -508.05508162 514.52387934 -529 523 C-529.89396484 523.35932617 -530.78792969 523.71865234 -531.70898438 524.08886719 C-551.49814956 532.13119482 -570.0196816 541.99426848 -587 555 C-587.89847656 555.68707031 -588.79695313 556.37414062 -589.72265625 557.08203125 C-594.81211145 561.0702133 -599.66097659 565.29116039 -604.4296875 569.65625 C-606.18783793 571.25942669 -607.96497458 572.84196082 -609.7578125 574.40625 C-616.27245523 580.14058733 -621.7086956 586.12783675 -627 593 C-622.72277922 589.83485663 -618.52426374 586.61428772 -614.39819336 583.25366211 C-583.54617649 558.38976326 -547.37789385 545.17806166 -509 537 C-508.20730713 536.82887695 -507.41461426 536.65775391 -506.59790039 536.48144531 C-496.56824975 534.48765304 -486.34583953 533.58849532 -476.1875 532.5 C-475.15625 532.38917084 -474.125 532.27834167 -473.0625 532.16415405 C-451.99132194 529.91266901 -430.9997722 528.28011922 -409.81640625 527.58203125 C-405.23174498 527.4304518 -400.64710026 527.27841476 -396.0625 527.125 C-394.9062915 527.08636841 -393.75008301 527.04773682 -392.55883789 527.00793457 C-375.83207287 526.43494078 -359.17497627 525.5017485 -342.5 524.0625 C-341.0941716 523.94325165 -341.0941716 523.94325165 -339.65994263 523.82159424 C-303.07842149 520.67572837 -266.10560279 514.6375201 -231.27050781 502.76367188 C-228.8633718 501.95404591 -226.44557545 501.18538515 -224.0234375 500.421875 C-192.9420471 490.52407196 -161.89481988 476.9693641 -136.1875 456.58203125 C-134 455 -134 455 -132 455 C-139.06867693 477.79563757 -157.23087515 497.6189974 -173.05859375 514.875 C-174.91348745 516.90530618 -176.71008016 518.97493973 -178.5 521.0625 C-184.79414515 528.27242146 -191.67520905 534.85093793 -199 541 C-199.50257324 541.43231934 -200.00514648 541.86463867 -200.52294922 542.31005859 C-231.1973425 568.62895361 -267.05073753 587.59562943 -305 601 C-306.26384521 601.44883545 -306.26384521 601.44883545 -307.55322266 601.90673828 C-356.87475407 619.28899646 -409.54013915 621.31402872 -461.125 615.43212891 C-467.30203375 614.74328379 -473.48855072 614.15785408 -479.6756897 613.56802368 C-481.60596597 613.3828228 -483.53578346 613.19285898 -485.46557617 613.00268555 C-488.97616165 612.65806343 -492.48758675 612.32542964 -496 612 C-497.02544922 611.90283691 -498.05089844 611.80567383 -499.10742188 611.70556641 C-524.77408995 609.48020305 -550.97880582 609.42460089 -576 616 C-576.81404297 616.20866699 -577.62808594 616.41733398 -578.46679688 616.63232422 C-593.90272994 620.75360031 -611.76148935 627.69577238 -624 638 C-623.23196045 637.7424292 -622.4639209 637.4848584 -621.67260742 637.21948242 C-613.29468549 634.51273051 -604.99397122 632.72830364 -596.3125 631.3125 C-595.07177734 631.10044922 -593.83105469 630.88839844 -592.55273438 630.66992188 C-553.13642061 624.05532608 -513.58494592 628.44352198 -475.14453125 638.51171875 C-429.06787128 650.51583921 -381.80539601 653.03655837 -335 644 C-333.50291504 643.71165283 -333.50291504 643.71165283 -331.97558594 643.41748047 C-318.38125384 640.66864461 -305.48136537 635.78065452 -292.54516602 630.86035156 C-290.04129993 630.01396076 -287.60047783 629.45723972 -285 629 C-319.1069444 670.28735375 -377.85063803 700.33519424 -430.86328125 706.5390625 C-453.7007621 708.61270733 -477.5794297 707.68817941 -500.125 703.8125 C-502.06391113 703.48149292 -502.06391113 703.48149292 -504.04199219 703.14379883 C-526.54196165 699.25254404 -548.29035249 694.09034341 -570 687 C-578.41161038 684.25745737 -586.80096546 681.69571021 -595.4375 679.75 C-596.159375 679.58661133 -596.88125 679.42322266 -597.625 679.25488281 C-607.59582736 677.10188188 -617.43730286 676.74327438 -627.625 676.6875 C-628.28864563 676.68355225 -628.95229126 676.67960449 -629.63604736 676.67553711 C-639.68427872 676.64758738 -648.60677331 677.30862671 -658 681 C-656.8140625 681.09796875 -655.628125 681.1959375 -654.40625 681.296875 C-627.02339935 683.73597179 -603.6842745 694.06367089 -579.25 706.125 C-556.58556418 717.30592829 -534.50527153 726.00982142 -509.375 729.75 C-508.6015625 729.86577393 -507.828125 729.98154785 -507.03125 730.10083008 C-491.40454919 732.20627184 -475.60901231 732.13854438 -459.875 732.0625 C-458.02994916 732.05746598 -456.18489695 732.05290649 -454.33984375 732.04882812 C-449.89319457 732.03799383 -445.44661309 732.02083849 -441 732 C-454.93547015 743.57682449 -473.07353924 750.92251139 -490 757 C-491.0725 757.40605469 -492.145 757.81210937 -493.25 758.23046875 C-509.87472035 764.00048472 -527.59522383 765.37799251 -545.0625 765.375 C-545.74034546 765.37681274 -546.41819092 765.37862549 -547.11657715 765.38049316 C-561.0717411 765.37625842 -574.69490964 764.02991115 -588.1875 760.375 C-589.15671387 760.11557617 -590.12592773 759.85615234 -591.12451172 759.58886719 C-618.10779007 752.12494069 -643.49866281 739.64850902 -666.5625 723.875 C-677.22519091 716.60305047 -688.70465361 710.95951833 -701 707 C-701.33 707.33 -701.66 707.66 -702 708 C-698.83760418 711.19176092 -695.66931241 714.3776081 -692.5 717.5625 C-691.613125 718.45775391 -690.72625 719.35300781 -689.8125 720.27539062 C-685.24465957 724.86002458 -680.64296627 729.32104214 -675.7043457 733.50610352 C-673.93988479 735.05269231 -672.31221436 736.68313592 -670.6875 738.375 C-666.97090409 742.15072357 -662.92205473 745.44919069 -658.7890625 748.7578125 C-657.09421089 750.12034027 -655.41677961 751.50545767 -653.7734375 752.9296875 C-629.60767158 773.50901466 -600.76684707 781.83891003 -570 786 C-573.53424963 789.06728918 -577.5336478 790.50518926 -581.875 792.0625 C-582.56980469 792.31837891 -583.26460937 792.57425781 -583.98046875 792.83789062 C-585.98297069 793.5713871 -587.98709918 794.29550827 -590 795 C-590.9494751 795.33596191 -591.8989502 795.67192383 -592.87719727 796.01806641 C-603.14634562 799.24709578 -613.77063385 799.28748543 -624.4375 799.1875 C-625.74009766 799.18685547 -627.04269531 799.18621094 -628.38476562 799.18554688 C-640.63782245 799.13065513 -652.58575037 798.97258235 -664.375 795.375 C-665.26493652 795.11138672 -666.15487305 794.84777344 -667.07177734 794.57617188 C-675.36859777 792.03702669 -683.20873788 788.7999794 -691 785 C-691.969375 784.52949219 -692.93875 784.05898438 -693.9375 783.57421875 C-713.04999786 773.71239209 -730.27594097 758.40505801 -744.15771484 742.1418457 C-746.15150361 739.8238615 -748.17732099 737.53700767 -750.2109375 735.25390625 C-750.9229834 734.45412354 -751.6350293 733.65434082 -752.36865234 732.83032227 C-752.90699707 732.22631592 -753.4453418 731.62230957 -754 731 C-742.89725016 757.84160741 -742.89725016 757.84160741 -727 782 C-725.93652344 783.30904297 -725.93652344 783.30904297 -724.8515625 784.64453125 C-713.17358565 798.30981294 -698.06191723 804.65138541 -681 809 C-691.18003308 815.78668872 -711.29396765 813.05392012 -722.70703125 810.87109375 C-734.4629991 808.2792338 -745.96144742 804.81073015 -757 800 C-757.67401855 799.70899414 -758.34803711 799.41798828 -759.04248047 799.11816406 C-789.29647603 785.88510421 -814.04788365 765.97758351 -837.3125 742.8125 C-838.06539307 742.06427979 -838.81828613 741.31605957 -839.59399414 740.54516602 C-843.70216104 736.42518228 -847.61577543 732.20581195 -851.41186523 727.79760742 C-853.60677722 725.31318975 -855.97839565 723.0386492 -858.375 720.75 C-873.37229901 705.95938211 -884.02887306 687.62203137 -884.5 666.25 C-884.43660594 650.77372079 -878.46057581 634.6281724 -867.9375 623.1875 C-855.33894533 611.53169432 -838.8236012 605.62528745 -821.82421875 605.78515625 C-806.90588136 606.62326509 -791.70686733 611.47821754 -781.4296875 622.71728516 C-780.26754776 624.02635067 -779.10628242 625.33619287 -777.94580078 626.64672852 C-770.51326172 634.97719164 -765.24230577 639.51903939 -753.7734375 640.34765625 C-736.65344776 641.13419624 -723.73788558 635.77519719 -710.75 624.6875 C-703.30386057 617.72518262 -697.93460125 609.37520506 -694 600 C-693.60554687 599.07832031 -693.21109375 598.15664063 -692.8046875 597.20703125 C-689.89829665 589.02645562 -689.61288788 581.18356955 -689.5625 572.5625 C-689.5473938 570.90263062 -689.5473938 570.90263062 -689.53198242 569.20922852 C-689.67040324 555.81775068 -692.90026386 543.44562367 -697.15792847 530.81964111 C-698.29065087 527.45448019 -699.3893652 524.07817786 -700.4921875 520.703125 C-700.71005417 520.03838165 -700.92792084 519.37363831 -701.15238953 518.68875122 C-704.03847202 509.86222362 -706.69287651 500.99521154 -709 492 C-709.17644043 491.34161133 -709.35288086 490.68322266 -709.53466797 490.00488281 C-718.07878865 456.99697159 -711.1921653 419.81158822 -694.55078125 390.6015625 C-686.56271652 377.16272571 -676.76347731 365.28376624 -666 354 C-664.96746094 352.90558594 -664.96746094 352.90558594 -663.9140625 351.7890625 C-622.77582609 309.30753674 -562.37044788 288.07927414 -507 272 C-506.02708008 271.71560059 -505.05416016 271.43120117 -504.05175781 271.13818359 C-481.28155162 264.51378811 -458.26744633 258.94639723 -435.02734375 254.23828125 C-430.90558341 253.40126963 -426.79652781 252.5205753 -422.69140625 251.60546875 C-408.55654949 248.46706026 -394.3864403 245.73951431 -380.125 243.25 C-379.27550781 243.10129456 -378.42601562 242.95258911 -377.55078125 242.79937744 C-369.59819263 241.41210538 -361.65033551 240.06299895 -353.65234375 238.9609375 C-345.7012804 237.85945142 -337.86318005 236.26968603 -329.99804688 234.6796875 C-328.90427734 234.463125 -327.81050781 234.2465625 -326.68359375 234.0234375 C-325.22264282 233.72832275 -325.22264282 233.72832275 -323.73217773 233.42724609 C-321.10259265 233.01604299 -318.656097 232.92078572 -316 233 C-315.67 233.66 -315.34 234.32 -315 235 C-329.4891815 240.06933901 -343.99467097 245.03799404 -358.625 249.6875 C-443.98897752 276.99039255 -540.89875541 310.66080339 -606.71728516 390.26855469 C-608.04117958 392.05558538 -609.39808716 393.81346313 -610.76171875 395.5703125 C-619.6910005 407.21645839 -626.50455177 419.87593945 -633 433 C-632.40574219 432.20078125 -631.81148437 431.4015625 -631.19921875 430.578125 C-625.22955897 422.63241141 -618.8892719 415.16613049 -612 408 C-611.43120117 407.40396973 -610.86240234 406.80793945 -610.27636719 406.19384766 C-602.22498546 397.79814917 -593.94248193 390.14811911 -584.60839844 383.20263672 C-583.12343231 382.09229319 -581.6583656 380.95546848 -580.1953125 379.81640625 C-564.10778327 367.39756286 -546.83285792 356.70493466 -529 347 C-528.10619629 346.51321777 -527.21239258 346.02643555 -526.29150391 345.52490234 C-485.43809521 323.4350938 -442.26913601 306.76017681 -398.68280029 290.97198486 C-396.14622035 290.05297598 -393.61032737 289.13210192 -391.07470703 288.21044922 C-378.42472646 283.61378781 -365.7685369 279.03420597 -353.07788086 274.55088806 C-318.86912423 262.46439392 -284.46437915 250.24102689 -251.80322266 234.35595703 C-248.91587146 232.95930588 -246.01346067 231.59919432 -243.10546875 230.24609375 C-205.45096071 212.65169751 -169.78854804 190.54963848 -137 165 C-135.79566176 164.07149934 -134.59123396 163.14311483 -133.38671875 162.21484375 C-125.95585046 156.45849468 -118.73304081 150.4849739 -111.60351562 144.36083984 C-110.07056477 143.05988551 -108.51233844 141.78889091 -106.953125 140.51953125 C-98.50314108 133.59067534 -90.78184323 125.97018186 -83.0625 118.25 C-82.24585876 117.43471832 -82.24585876 117.43471832 -81.41271973 116.60296631 C-75.39295833 110.58207005 -69.50545104 104.50110781 -64 98 C-63.154375 97.03578125 -62.30875 96.0715625 -61.4375 95.078125 C-53.12258615 85.43069291 -45.51298104 75.27964513 -38 65 C-37.55914063 64.39687988 -37.11828125 63.79375977 -36.6640625 63.17236328 C-34.01108936 59.51228415 -31.47273686 55.78331769 -29 52 C-28.5344873 51.28924316 -28.06897461 50.57848633 -27.58935547 49.84619141 C-17.19230337 33.83108309 -8.51933905 17.06641197 0 0 Z " fill="#2563EB" transform="translate(1005,90)"/>
<path d="M0 0 C0.66 0.33 1.32 0.66 2 1 C2 1.99 2 2.98 2 4 C-1.3 4.66 -4.6 5.32 -8 6 C-5.38485683 3.87961365 -2.80362384 1.86908256 0 0 Z " fill="#D3DFFA" transform="translate(386,723)"/>
<path d="M0 0 C0.99 0.66 1.98 1.32 3 2 C-0.63 2 -4.26 2 -8 2 C-5.14066998 -0.85933002 -3.8625627 -1.2875209 0 0 Z " fill="#D0DDFA" transform="translate(353,770)"/>
<path d="M0 0 C0.99 0.66 1.98 1.32 3 2 C0.36 4.31 -2.28 6.62 -5 9 C-5 4.61031544 -2.87194899 3.23094261 0 0 Z " fill="#D8E3FB" transform="translate(405,587)"/>
<path d="M0 0 C0.66 0.66 1.32 1.32 2 2 C0.35 4.31 -1.3 6.62 -3 9 C-3.33 8.34 -3.66 7.68 -4 7 C-3.22265625 5.2734375 -3.22265625 5.2734375 -2.0625 3.375 C-1.381875 2.26125 -0.70125 1.1475 0 0 Z " fill="#C4D4F9" transform="translate(374,517)"/>
</svg>
